<?xml version="1.0" encoding="UTF-8" standalone="no"?>
<svg
   version="1.1"
   viewBox="0 0 233 233"
   id="svg3538"
   xmlns="http://www.w3.org/2000/svg"
   xmlns:svg="http://www.w3.org/2000/svg">
  <defs
     id="defs3532">
    <linearGradient
       id="a"
       x2="50%"
       x1="50%"
       y2="100%">
      <stop
         stop-color="#111D2E"
         offset="0"
         id="stop3517" />
      <stop
         stop-color="#051839"
         offset=".21248"
         id="stop3519" />
      <stop
         stop-color="#0A1B48"
         offset=".40695"
         id="stop3521" />
      <stop
         stop-color="#132E62"
         offset=".58110"
         id="stop3523" />
      <stop
         stop-color="#144B7E"
         offset=".73760"
         id="stop3525" />
      <stop
         stop-color="#136497"
         offset=".87279"
         id="stop3527" />
      <stop
         stop-color="#1387B8"
         offset="1"
         id="stop3529" />
    </linearGradient>
  </defs>
  <path
     id="path3534"
     d="M 116.50195 0 C 54.761015 0 4.2419491 48.028826 0.25195312 108.75977 C 0.27018051 108.79037 0.28456079 108.8171 0.30273438 108.84766 C 0.30273732 108.8476 0.30273491 108.83008 0.30273438 108.83008 L 62.900391 134.59961 C 64.603389 133.47961 66.418471 132.5107 68.355469 131.7207 C 72.749464 129.9107 77.383958 129.10055 82.001953 129.31055 L 110.50977 87.898438 C 110.49977 87.714438 110.5 87.518265 110.5 87.322266 C 110.5 62.88229 130.35002 43 154.75 43 C 179.15998 43 199 62.88229 199 87.322266 C 199 111.76024 179.15998 131.66016 154.75 131.66016 C 154.42 131.66016 154.08 131.65062 153.75 131.64062 L 112.96094 160.78906 C 113.08094 165.28906 112.2507 169.79961 110.4707 174.09961 C 103.63071 190.54959 84.671499 198.37976 68.228516 191.50977 C 58.178526 187.31977 51.366529 178.60968 49.144531 168.67969 L 5.0429688 150.48242 C 19.586866 198.24726 63.982414 233 116.50195 233 C 180.84189 233 233.00195 180.83994 233.00195 116.5 C 233.00195 52.159064 180.84189 0 116.50195 0 z M 154.75 57.792969 C 138.50002 57.792969 125.26953 71.047282 125.26953 87.322266 C 125.26953 103.61025 138.50002 116.85938 154.75 116.85938 C 171.00998 116.85938 184.24023 103.61025 184.24023 87.322266 C 184.24023 71.047282 171.00998 57.792969 154.75 57.792969 z M 154.80078 65.085938 C 167.03077 65.085938 176.94922 75.024356 176.94922 87.277344 C 176.94922 99.531331 167.03077 109.46094 154.80078 109.46094 C 142.58079 109.46094 132.66016 99.531331 132.66016 87.277344 C 132.66016 75.024356 142.58079 65.085938 154.80078 65.085938 z M 80.917969 136.68945 C 77.803847 136.66445 74.734325 137.23031 71.861328 138.32031 L 86.753906 144.49023 C 96.111897 148.39023 100.54071 159.14954 96.636719 168.51953 C 92.744723 177.87952 82.001663 182.31992 72.638672 178.41992 L 58.234375 172.44922 C 60.785372 177.77921 65.207459 182.24946 71.064453 184.68945 C 83.76044 189.97945 98.366162 183.95022 103.66016 171.24023 C 106.22015 165.10024 106.22922 158.30062 103.69922 152.14062 C 101.16922 145.98063 96.395181 141.15961 90.242188 138.59961 C 87.190691 137.32961 84.032091 136.71445 80.917969 136.68945 z "
     style="stroke:none;fill:#ffffff;fill-opacity:1" />
</svg>
