<?xml version="1.0" encoding="UTF-8" standalone="no"?>
<!-- Created with Inkscape (http://www.inkscape.org/) -->

<svg
   width="114.60132mm"
   height="49.233398mm"
   viewBox="0 0 114.60132 49.233398"
   version="1.1"
   id="svg5"
   xml:space="preserve"
   inkscape:version="1.2.2 (732a01da63, 2022-12-09)"
   sodipodi:docname="inpp thing.svg"
   xmlns:inkscape="http://www.inkscape.org/namespaces/inkscape"
   xmlns:sodipodi="http://sodipodi.sourceforge.net/DTD/sodipodi-0.dtd"
   xmlns="http://www.w3.org/2000/svg"
   xmlns:svg="http://www.w3.org/2000/svg"><sodipodi:namedview
     id="namedview7"
     pagecolor="#ffffff"
     bordercolor="#000000"
     borderopacity="0.25"
     inkscape:showpageshadow="2"
     inkscape:pageopacity="0.0"
     inkscape:pagecheckerboard="0"
     inkscape:deskcolor="#d1d1d1"
     inkscape:document-units="mm"
     showgrid="false"
     inkscape:zoom="0.96123038"
     inkscape:cx="5630.8041"
     inkscape:cy="-188.8205"
     inkscape:current-layer="layer1"
     inkscape:window-width="2560"
     inkscape:window-height="1351"
     inkscape:window-x="3191"
     inkscape:window-y="1341"
     inkscape:window-maximized="1" /><defs
     id="defs2"><linearGradient
       id="linearGradient4006"
       inkscape:swatch="solid"><stop
         id="stop4008"
         offset="0"
         style="stop-color:#ff6600;stop-opacity:1;" /></linearGradient></defs><g
     inkscape:label="Layer 1"
     inkscape:groupmode="layer"
     id="layer1"
     transform="translate(-1294.6158,314.13994)"><g
       id="g2680"
       transform="translate(0,-425.45013)"><path
         id="path2852"
         style="fill:#191b45;stroke-width:3.35098;stroke-linecap:round;stroke-linejoin:round;stroke-miterlimit:100;paint-order:stroke fill markers"
         d="m 1300.975,113.67263 h 101.8826 c 3.523,0 6.3593,2.83623 6.3593,6.35927 v 34.15244 c 0,3.52303 -2.8363,6.35927 -6.3593,6.35927 H 1300.975 c -3.523,0 -6.3593,-2.83624 -6.3593,-6.35927 V 120.0319 c 0,-3.52304 2.8363,-6.35927 6.3593,-6.35927 z" /><g
         id="g2676"
         transform="matrix(21.974881,0,0,21.974881,-52426.169,16480.041)"><g
           aria-label="Plate Pack"
           id="text2670"
           style="font-weight:300;font-size:0.807975px;line-height:1.25;font-family:Comfortaa;-inkscape-font-specification:'Comfortaa Light';fill:#ffffff;stroke-width:0.235854"><path
             d="m 2445.7325,-743.0434 v -0.5575 h 0.2368 q 0.081,0 0.1276,0.0477 0.048,0.0477 0.048,0.1317 0,0.084 -0.048,0.13332 -0.047,0.0493 -0.1276,0.0493 h -0.143 v 0.19553 z m 0.223,-0.28117 q 0.045,0 0.07,-0.0234 0.025,-0.0234 0.025,-0.0719 0,-0.0485 -0.025,-0.0719 -0.024,-0.0234 -0.07,-0.0234 h -0.1292 v 0.19068 z"
             style="font-weight:600;font-family:'gg sans';-inkscape-font-specification:'gg sans Semi-Bold'"
             id="path2849" /><path
             d="m 2446.3385,-743.0337 q -0.1058,0 -0.1058,-0.11796 v -0.48156 h 0.089 v 0.47428 q 0,0.0251 0.01,0.0364 0.01,0.0105 0.028,0.0105 0.018,0 0.028,-0.007 v 0.076 q -0.018,0.01 -0.047,0.01 z"
             style="font-weight:600;font-family:'gg sans';-inkscape-font-specification:'gg sans Semi-Bold'"
             id="path2846" /><path
             d="m 2446.5688,-743.03208 q -0.051,0 -0.085,-0.0299 -0.034,-0.0299 -0.034,-0.084 0,-0.12766 0.2327,-0.13008 v -0.0113 q 0,-0.0347 -0.02,-0.0541 -0.02,-0.0194 -0.056,-0.0194 -0.026,0 -0.053,0.0113 -0.027,0.0105 -0.05,0.0323 l -0.044,-0.0557 q 0.027,-0.0291 0.067,-0.0453 0.04,-0.0162 0.085,-0.0162 0.1608,0 0.1608,0.14706 v 0.244 h -0.082 l -0.01,-0.0477 q -0.015,0.0234 -0.045,0.0412 -0.029,0.0178 -0.069,0.0178 z m 0.023,-0.0711 q 0.053,0 0.091,-0.0509 v -0.063 q -0.074,0.002 -0.1099,0.0194 -0.035,0.0162 -0.035,0.0477 0,0.0226 0.015,0.0347 0.015,0.0121 0.04,0.0121 z"
             style="font-weight:600;font-family:'gg sans';-inkscape-font-specification:'gg sans Semi-Bold'"
             id="path2843" /><path
             d="m 2447.0213,-743.03208 q -0.059,0 -0.089,-0.0307 -0.029,-0.0315 -0.029,-0.097 v -0.18745 h -0.072 v -0.076 h 0.072 v -0.10343 l 0.09,-0.0275 v 0.1309 h 0.1042 v 0.076 h -0.1042 v 0.18098 q 0,0.025 0.01,0.042 0.01,0.0162 0.041,0.0162 0.015,0 0.027,-0.004 0.012,-0.004 0.027,-0.0137 v 0.0743 q -0.031,0.0194 -0.076,0.0194 z"
             style="font-weight:600;font-family:'gg sans';-inkscape-font-specification:'gg sans Semi-Bold'"
             id="path2840" /><path
             d="m 2447.3437,-743.03208 q -0.058,0 -0.1019,-0.0242 -0.044,-0.0242 -0.068,-0.0695 -0.023,-0.0453 -0.023,-0.10746 0,-0.0622 0.024,-0.10746 0.024,-0.0461 0.065,-0.0695 0.042,-0.0242 0.093,-0.0242 0.083,0 0.1277,0.0525 0.044,0.0517 0.044,0.13897 0,0.0105 0,0.0331 h -0.265 q 0.01,0.0493 0.034,0.0776 0.028,0.0275 0.074,0.0275 0.031,0 0.056,-0.0121 0.024,-0.0129 0.044,-0.0372 l 0.052,0.0549 q -0.029,0.0339 -0.066,0.0509 -0.036,0.0162 -0.089,0.0162 z m 0.081,-0.2424 q 0,-0.0444 -0.027,-0.0662 -0.024,-0.0218 -0.065,-0.0218 -0.037,0 -0.061,0.0234 -0.023,0.0226 -0.031,0.0646 z"
             style="font-weight:600;font-family:'gg sans';-inkscape-font-specification:'gg sans Semi-Bold'"
             id="path2837" /><path
             d="m 2447.7767,-743.0434 v -0.5575 h 0.2368 q 0.081,0 0.1276,0.0477 0.048,0.0477 0.048,0.1317 0,0.084 -0.048,0.13332 -0.047,0.0493 -0.1276,0.0493 h -0.143 v 0.19553 z m 0.223,-0.28117 q 0.045,0 0.07,-0.0234 0.025,-0.0234 0.025,-0.0719 0,-0.0485 -0.025,-0.0719 -0.024,-0.0234 -0.07,-0.0234 h -0.1292 v 0.19068 z"
             style="font-weight:600;font-family:'gg sans';-inkscape-font-specification:'gg sans Semi-Bold'"
             id="path2834" /><path
             d="m 2448.3625,-743.03208 q -0.051,0 -0.085,-0.0299 -0.034,-0.0299 -0.034,-0.084 0,-0.12766 0.2327,-0.13008 v -0.0113 q 0,-0.0347 -0.02,-0.0541 -0.02,-0.0194 -0.057,-0.0194 -0.026,0 -0.053,0.0113 -0.027,0.0105 -0.05,0.0323 l -0.044,-0.0557 q 0.028,-0.0291 0.067,-0.0453 0.04,-0.0162 0.085,-0.0162 0.1608,0 0.1608,0.14706 v 0.244 h -0.082 l -0.01,-0.0477 q -0.015,0.0234 -0.045,0.0412 -0.029,0.0178 -0.069,0.0178 z m 0.023,-0.0711 q 0.053,0 0.091,-0.0509 v -0.063 q -0.074,0.002 -0.1099,0.0194 -0.035,0.0162 -0.035,0.0477 0,0.0226 0.014,0.0347 0.015,0.0121 0.04,0.0121 z"
             style="font-weight:600;font-family:'gg sans';-inkscape-font-specification:'gg sans Semi-Bold'"
             id="path2831" /><path
             d="m 2448.8424,-743.03208 q -0.052,0 -0.095,-0.0234 -0.043,-0.0234 -0.068,-0.0687 -0.025,-0.0461 -0.025,-0.10989 0,-0.0646 0.025,-0.10907 0.026,-0.0453 0.069,-0.0679 0.044,-0.0234 0.096,-0.0234 0.109,0 0.1567,0.0881 l -0.068,0.0477 q -0.015,-0.0283 -0.037,-0.0436 -0.021,-0.0154 -0.053,-0.0154 -0.044,0 -0.071,0.0323 -0.027,0.0315 -0.027,0.0913 0,0.0606 0.027,0.0929 0.028,0.0323 0.071,0.0323 0.036,0 0.058,-0.0162 0.023,-0.017 0.039,-0.0461 l 0.064,0.0501 q -0.023,0.042 -0.065,0.0654 -0.041,0.0234 -0.095,0.0234 z"
             style="font-weight:600;font-family:'gg sans';-inkscape-font-specification:'gg sans Semi-Bold'"
             id="path2828" /><path
             d="m 2449.0865,-743.0434 v -0.58982 h 0.089 v 0.33854 l 0.1374,-0.12846 h 0.1083 l -0.1471,0.13897 q 0.098,0.1115 0.1495,0.24077 h -0.099 q -0.036,-0.10261 -0.1099,-0.18341 l -0.039,0.0364 v 0.14705 z"
             style="font-weight:600;font-family:'gg sans';-inkscape-font-specification:'gg sans Semi-Bold'"
             id="path2825" /></g><g
           aria-label="INDIANA"
           id="text2674"
           style="font-weight:300;font-size:0.906393px;line-height:1.25;font-family:Comfortaa;-inkscape-font-specification:'Comfortaa Light';fill:#ffffff;stroke-width:0.264583"><path
             d="m 2445.8684,-743.7619 h -0.1459 v -0.62541 h 0.1459 z"
             style="font-weight:800;font-family:'gg sans';-inkscape-font-specification:'gg sans Ultra-Bold'"
             id="path2822" /><path
             d="m 2446.1295,-743.7619 h -0.1432 v -0.62541 h 0.1821 l 0.2221,0.4251 v -0.4251 h 0.1432 v 0.62541 h -0.1813 l -0.2229,-0.42601 z"
             style="font-weight:800;font-family:'gg sans';-inkscape-font-specification:'gg sans Ultra-Bold'"
             id="path2819" /><path
             d="m 2446.6515,-743.7619 v -0.62541 h 0.2239 q 0.1487,0 0.2266,0.0807 0.079,0.0798 0.079,0.23203 0,0.15228 -0.079,0.23295 -0.078,0.0798 -0.2266,0.0798 z m 0.2303,-0.13143 q 0.072,0 0.1124,-0.0426 0.041,-0.0435 0.041,-0.13868 0,-0.18128 -0.1531,-0.18128 h -0.084 v 0.36256 z"
             style="font-weight:800;font-family:'gg sans';-inkscape-font-specification:'gg sans Ultra-Bold'"
             id="path2816" /><path
             d="m 2447.4193,-743.7619 h -0.146 v -0.62541 h 0.146 z"
             style="font-weight:800;font-family:'gg sans';-inkscape-font-specification:'gg sans Ultra-Bold'"
             id="path2813" /><path
             d="m 2448.1154,-743.7619 h -0.1568 l -0.038,-0.11239 h -0.242 l -0.038,0.11239 h -0.1568 l 0.2357,-0.62541 h 0.1595 z m -0.3164,-0.47133 -0.077,0.23023 h 0.155 z"
             style="font-weight:800;font-family:'gg sans';-inkscape-font-specification:'gg sans Ultra-Bold'"
             id="path2810" /><path
             d="m 2448.3229,-743.7619 h -0.1432 v -0.62541 h 0.1822 l 0.2221,0.4251 v -0.4251 h 0.1432 v 0.62541 h -0.1813 l -0.223,-0.42601 z"
             style="font-weight:800;font-family:'gg sans';-inkscape-font-specification:'gg sans Ultra-Bold'"
             id="path2807" /><path
             d="m 2449.4233,-743.7619 h -0.1568 l -0.038,-0.11239 h -0.242 l -0.038,0.11239 h -0.1568 l 0.2357,-0.62541 h 0.1595 z m -0.3163,-0.47133 -0.077,0.23023 h 0.155 z"
             style="font-weight:800;font-family:'gg sans';-inkscape-font-specification:'gg sans Ultra-Bold'"
             id="path2804" /></g></g><path
         id="path2801"
         style="fill:#ffffff;fill-opacity:1;stroke:none;stroke-width:0.153048;stroke-opacity:1"
         d="m 1308.5718,111.31019 -0.8131,2.36274 h -2.4151 l 1.8899,1.50748 -0.6812,2.27198 1.9777,-1.35585 1.9997,1.34266 -0.6812,-2.23681 1.8898,-1.52946 h -2.426 z m 1.692,8.13379 c -1.6261,0.0879 -1.8459,1.27454 -2.3733,2.83453 0.2198,-0.6043 -0.3296,-0.60651 -0.6812,-1.42836 0.2198,0.72956 -0.5713,1.68107 -0.7691,2.64489 -0.2198,0.9647 0.2637,2.4412 0.9229,3.367 l 2.1316,0.003 c 2.5337,-2.77762 -0.9449,-4.91709 0.7691,-7.42113 z m 1.8459,1.91181 c -2.6963,1.26135 0.2417,2.69764 -2.0656,5.49856 h 1.5602 c 1.9338,-1.50528 0.4175,-2.56293 1.2306,-3.772 -0.3516,0.25271 -0.879,0.88779 -1.1427,1.22401 0.2197,-0.34721 0.2197,-0.72957 0.2197,-1.10534 -0.2856,-1.01744 0.3736,-1.01744 0.2857,-1.84589 z m -2.0656,5.49856 v 0 0.0105 c 0,-0.004 0.01,-0.008 0.01,-0.0105 z m -4.6873,-5.13026 c 0,1.75359 -1.9337,2.65368 -0.2197,5.12235 v 0.0118 l 1.6481,0.001 c -2.1535,-2.12937 -0.3516,-2.84267 -1.5822,-5.1384 z m -1.1427,5.40603 v 0.82406 l 8.6603,0.008 v -0.82185 z m 0.5934,1.39541 c 1.2745,1.3097 1.9338,2.26363 2.0436,5.39329 1.1208,-0.007 2.2327,-0.007 3.3468,-0.001 0.2198,-3.12988 0.7911,-4.08316 2.0656,-5.39176 z m 1.3844,5.71699 v 1.02843 h 4.5708 v -1.02843 z m 0.813,1.30311 0.3736,6.70519 v 0.0879 l 0.3955,7.84678 v 0.10994 l 0.2198,3.27778 c 0,0 0.2197,1.29432 0.5494,1.69866 v 0.003 c 0.4395,-0.39775 0.5493,-1.69866 0.5493,-1.69866 l 0.2198,-3.54718 0.2197,-1.758 0.3516,-6.69905 0.3516,-6.01671 z"
         sodipodi:nodetypes="ccccccccccccccccccccccccccccssccscccccccccccccccccccccccccsscccccc" /></g></g></svg>
