<?xml version="1.0" encoding="UTF-8" standalone="no"?>
<!-- Created with Inkscape (http://www.inkscape.org/) -->

<svg
   width="106.45108mm"
   height="71.33226mm"
   viewBox="0 0 106.45108 71.33226"
   version="1.1"
   id="svg82892"
   xmlns="http://www.w3.org/2000/svg"
   xmlns:svg="http://www.w3.org/2000/svg">
  <defs
     id="defs82889" />
  <g
     id="layer1"
     transform="translate(-54.236626,-110.15441)">
    <path
       id="path54725"
       style="font-size:3.20732px;line-height:1.05;font-family:'Corporate Logo Rounded';-inkscape-font-specification:'Corporate Logo Rounded';fill:#ffffff;stroke-width:0.400914"
       d="m 114.97546,110.15441 c -2.92677,0.0869 -5.82077,1.22579 -8.04162,3.56696 -0.99941,1.05365 -1.80904,2.2551 -2.70004,3.39656 -1.59352,-0.2608 -3.16288,-0.56508 -4.78449,-0.71287 a 5.2166477,5.2166477 0 0 0 -0.139097,0 c -2.281534,-0.14779 -4.274354,-0.39121 -6.451218,-0.23472 -1.664639,-0.0869 -3.658069,-0.002 -5.975072,0.23472 a 5.2166477,5.2166477 0 0 0 -0.01739,0 c -1.603959,0.14779 -3.194095,0.46945 -4.789012,0.73026 -0.894218,-1.14581 -1.714367,-2.35682 -2.717949,-3.41482 -2.915554,-3.07404 -6.976482,-4.0425 -10.764085,-3.32441 -3.787603,0.72156 -7.297447,3.12706 -9.101792,6.87398 -0.79372,1.64743 -1.513024,3.33484 -2.156433,5.04486 -1.350803,3.5887 -2.366557,7.30606 -3.023441,11.07384 a 5.2161261,5.2161261 0 0 0 4.245405,6.02897 5.2161261,5.2161261 0 0 0 6.046968,-4.2494 c 0.544216,-3.12359 1.372276,-6.20893 2.493308,-9.18734 0.533784,-1.41792 1.141202,-2.80714 1.801476,-4.17812 0.796329,-1.65264 2.014294,-1.8352 2.902166,-0.89891 1.383316,1.45791 2.633535,3.04013 3.737789,4.70408 a 5.2166477,5.2166477 0 0 0 5.431465,2.22381 c 2.241195,-0.47815 4.527597,-0.82589 6.828604,-1.03367 2.168083,-0.19125 4.617228,-0.24341 5.107978,-0.21733 a 5.2166477,5.2166477 0 0 0 0.6468,0 c -0.0055,0 2.680045,0.0956 5.040603,0.25211 0.01739,8.7e-4 0.01739,-8.7e-4 0.03477,0 2.242677,0.20864 4.490477,0.55639 6.725327,1.01975 a 5.2166477,5.2166477 0 0 0 5.41347,-2.22381 c 1.10425,-1.66307 2.3543,-3.24617 3.7377,-4.70407 0.88778,-0.9363 2.10618,-0.75634 2.90217,0.89891 0.49118,1.02062 0.95289,2.06211 1.3747,3.10881 a 5.2161261,5.2161261 0 0 0 6.7927,2.88365 5.2161261,5.2161261 0 0 0 2.88869,-6.78792 c -0.5077,-1.26143 -1.0587,-2.51156 -1.64873,-3.73735 -2.1427,-4.44936 -6.69272,-7.03308 -11.25822,-7.11219 v 0 c -0.1956,-0.005 -0.3886,0 -0.58421,-0.004 z m 11.87372,18.88672 a 5.2161261,5.2161261 0 0 0 -5.21586,5.21612 5.2161261,5.2161261 0 0 0 5.21586,5.21526 5.2161261,5.2161261 0 0 0 5.21578,-5.21526 5.2161261,5.2161261 0 0 0 -5.21578,-5.21612 z m 22.31424,11.22249 c -4.57628,0 -8.64381,1.81 -11.92311,5.49867 a 5.2161261,5.2161261 0 0 0 -5.18882,-4.72146 h -5.21135 -6.7747 c -6.55137,-0.002 -12.46993,2.69847 -16.01133,7.31822 v -2.08906 a 5.2161261,5.2161261 0 0 0 -5.229258,-5.22916 5.2161261,5.2161261 0 0 0 -5.211344,5.22916 v 29.98751 a 5.2161261,5.2161261 0 0 0 5.211344,5.21091 5.2161261,5.2161261 0 0 0 5.229258,-5.21091 v -12.42655 c 0.24255,-8.3119 6.18849,-13.30634 16.01133,-13.30634 h 1.5544 0.009 v 25.75115 a 5.2161261,5.2161261 0 0 0 5.21125,5.21091 h 5.21135 a 5.2161261,5.2161261 0 0 0 5.21578,-5.21091 v -19.12058 c 0,-3.42178 3.57817,-6.99917 7.23294,-6.99917 4.35468,0 5.75043,1.94213 5.75043,8.16323 v 13.9714 h 0.005 v 3.98512 a 5.2161261,5.2161261 0 0 0 5.21134,5.21091 5.2161261,5.2161261 0 0 0 5.21578,-5.21091 v -3.98512 h 0.005 v -14.35826 c 0,-11.7415 -3.1308,-17.6505 -11.52338,-17.6505 z m -92.959011,1.85955 c -1.311769,0 -1.967783,0.74765 -1.967783,2.09862 v 8.57618 c 0,1.39793 0.709393,2.09776 2.124962,2.09776 1.397748,0 2.098013,-0.70418 2.098013,-2.09776 v -8.57618 c 0,-1.39792 -0.708524,-2.09862 -2.124963,-2.09862 -0.04347,0 -0.0878,-8.7e-4 -0.130403,0 z m 10.647243,0 c -1.311768,0 -1.967696,0.74765 -1.967696,2.09862 v 7.86592 c -0.01739,1.48834 -0.265153,2.74368 -0.736343,3.75996 -0.453803,0.99889 -1.004278,1.83955 -1.657772,2.52982 -0.635498,0.68679 -1.670291,1.31968 -3.104291,1.88215 -1.2164,0.36513 -1.68759,1.271 -1.415135,2.72282 0.453803,1.30577 1.396184,1.74132 2.83027,1.30664 1.77896,-0.73026 3.249908,-1.58049 4.411626,-2.56025 1.161805,-0.98063 2.095318,-2.26206 2.80332,-3.84081 0.708524,-1.59787 1.074261,-3.53131 1.091648,-5.80033 v -7.86592 c 0,-1.39792 -0.708524,-2.09862 -2.124876,-2.09862 -0.04347,0 -0.0878,-8.7e-4 -0.130403,0 z m 8.378489,1.00671 c -1.415917,0 -2.124962,0.71288 -2.124962,2.12471 0,1.41617 0.709393,2.1247 2.124962,2.1247 h 4.685733 c 1.415918,0 2.120442,-0.71287 2.120442,-2.1247 0,-1.41618 -0.704177,-2.12471 -2.120442,-2.12471 z m 13.239484,4.60932 c -0.864138,8.7e-4 -1.473903,0.43468 -1.828426,1.30229 -0.508572,1.57962 -1.296555,3.08621 -2.367599,4.51978 -1.052875,1.41618 -2.263973,2.65761 -3.625469,3.72866 -1.361408,1.07104 -3.21096,1.80652 -5.552739,2.20642 -1.343153,0.23472 -1.92449,1.07191 -1.743056,2.50635 0.345134,1.39879 1.141897,1.97604 2.394463,1.73871 3.213133,-0.70418 5.639675,-1.67699 7.273366,-2.91147 1.651947,-1.25187 3.175664,-2.86887 4.573412,-4.84752 1.415744,-1.99691 2.366904,-3.83733 2.85722,-5.52562 0.41729,-1.18058 0.01739,-2.05254 -1.195015,-2.61415 -0.28167,-0.0869 -0.544215,-0.10432 -0.785896,-0.10432 z" />
  </g>
</svg>
