<?xml version="1.0" encoding="UTF-8" standalone="no"?>
<!-- Created with Inkscape (http://www.inkscape.org/) -->

<svg
   width="42.588253mm"
   height="8.7656784mm"
   viewBox="0 0 42.588253 8.7656783"
   version="1.1"
   id="svg5"
   inkscape:version="1.2.2 (732a01da63, 2022-12-09)"
   sodipodi:docname="! logo workplace but tyhis time i put it in inkscape because im a funny.svg"
   xml:space="preserve"
   xmlns:inkscape="http://www.inkscape.org/namespaces/inkscape"
   xmlns:sodipodi="http://sodipodi.sourceforge.net/DTD/sodipodi-0.dtd"
   xmlns="http://www.w3.org/2000/svg"
   xmlns:svg="http://www.w3.org/2000/svg"><sodipodi:namedview
     id="namedview7"
     pagecolor="#353535"
     bordercolor="#000000"
     borderopacity="1"
     inkscape:showpageshadow="true"
     inkscape:pageopacity="0"
     inkscape:pagecheckerboard="false"
     inkscape:deskcolor="#353535"
     inkscape:document-units="mm"
     showgrid="false"
     inkscape:zoom="1.9999999"
     inkscape:cx="-2309.2501"
     inkscape:cy="1521.2501"
     inkscape:window-width="2560"
     inkscape:window-height="1351"
     inkscape:window-x="3191"
     inkscape:window-y="1341"
     inkscape:window-maximized="1"
     inkscape:current-layer="layer1"
     showborder="false"
     borderlayer="false"
     showguides="true"
     inkscape:lockguides="false"><inkscape:grid
       type="xygrid"
       id="grid7477"
       originx="0"
       originy="0"
       spacingy="1"
       spacingx="1"
       units="mm"
       visible="false" /><sodipodi:guide
       position="-1187.2988,136.65453"
       orientation="-1,0"
       id="guide15031"
       inkscape:locked="false"
       inkscape:label="funny"
       inkscape:color="rgb(0,134,229)" /></sodipodi:namedview><defs
     id="defs2"><style
       id="style45410">.cls-1{fill:url(#linear-gradient);}.cls-2{fill:url(#linear-gradient-2);}.cls-3{fill:url(#linear-gradient-3);}.cls-4{fill:url(#linear-gradient-4);}.cls-5{fill:#004bb3;}</style><style
       id="style544">.cls-1{fill:#cfd2d3;}.cls-2{fill:#231f20;}.cls-3{fill:#fff;}</style><style
       id="style33866">.cls-1{fill:#fff;}.cls-1,.cls-2{stroke-width:0px;}.cls-2{fill:#ff4500;}</style><style
       id="style17693">.a{fill:#030303;}.b{fill:#a9a09d;}.c{fill:#29282a;}.d,.k{opacity:0.44;}.e{opacity:0.5;}.f{fill:#5a5558;}.g{fill:#e1dcd7;}.h{fill:#231f20;}.i{fill:#796f6e;}.j{fill:#202228;}.l{fill:#9f9791;}.m{fill:#474249;}.n{fill:#dbd4cf;}</style></defs><g
     inkscape:label="Layer 1"
     inkscape:groupmode="layer"
     id="layer1"
     transform="translate(-577.31891,88.505575)"><path
       id="path128042"
       style="fill:#ffffff;stroke-width:9.37514;stroke-linecap:round;stroke-linejoin:round;stroke-dashoffset:10.5;paint-order:stroke fill markers"
       d="m 578.06047,-88.505547 h 32.00577 c 0.41086,0 0.74162,0.330764 0.74162,0.741624 v 7.282415 c 0,0.41086 -0.33076,0.741624 -0.74162,0.741624 h -32.00577 c -0.41086,0 -0.74162,-0.330764 -0.74162,-0.741624 v -7.282415 c 0,-0.41086 0.33076,-0.741624 0.74162,-0.741624 z" /><g
       aria-label="VOCA"
       id="text11346-1-2"
       style="font-size:9.53875px;line-height:1.25;font-family:'LEMON MILK Pro FTR';-inkscape-font-specification:'LEMON MILK Pro FTR';letter-spacing:0.238469px;stroke-width:0.445549"><path
         d="m 583.67926,-87.872068 -1.73728,4.066078 -1.73263,-4.066078 h -2.15646 l 3.44662,7.587218 h 0.90357 l 3.46059,-7.587218 z"
         style="font-weight:bold;-inkscape-font-specification:'LEMON MILK Pro FTR Bold'"
         id="path128054" /><path
         d="m 589.94465,-80.173068 c 2.33811,0 4.12663,-1.700021 4.12663,-3.935665 0,-2.254275 -1.78852,-3.963612 -4.12197,-3.963612 -2.33345,0 -4.12197,1.709337 -4.12197,3.963612 0,2.235644 1.78386,3.935665 4.11731,3.935665 z m 0.005,-1.904955 c -1.19234,0 -2.10523,-0.8896 -2.10523,-2.044683 0,-1.159741 0.91289,-2.053999 2.10523,-2.053999 1.19234,0 2.10523,0.894258 2.10523,2.053999 0,1.155083 -0.91289,2.044683 -2.10523,2.044683 z"
         style="font-weight:bold;-inkscape-font-specification:'LEMON MILK Pro FTR Bold'"
         id="path128051" /><path
         d="m 599.06049,-80.196356 c 1.14111,0 2.09592,-0.451786 2.81319,-1.103849 l -1.13645,-1.513718 c -0.48439,0.433156 -1.04796,0.731242 -1.67674,0.731242 -1.07124,0 -2.07728,-0.856997 -2.07728,-2.021395 0,-1.150425 0.96412,-2.03071 2.1192,-2.03071 0.55426,0 1.1644,0.274798 1.6255,0.693981 l 1.14577,-1.471799 c -0.7685,-0.698639 -1.80715,-1.12248 -2.77593,-1.136453 -2.33811,0 -4.13594,1.709337 -4.13594,3.931008 0,2.356742 1.97948,3.921693 4.09868,3.921693 z"
         style="font-weight:bold;-inkscape-font-specification:'LEMON MILK Pro FTR Bold'"
         id="path128048" /><path
         d="m 608.14839,-80.364029 h 2.18441 l -3.49319,-7.601191 h -0.9455 l -3.48853,7.601191 h 2.17975 l 0.38192,-0.875627 h 2.80387 z m -2.55236,-2.333454 0.77316,-1.7792 0.7685,1.7792 z"
         style="font-weight:bold;-inkscape-font-specification:'LEMON MILK Pro FTR Bold'"
         id="path128045" /></g><path
       id="path128057"
       style="fill:#31a49d;stroke-width:0.178612;stroke-linecap:round;stroke-linejoin:round;stroke-dashoffset:10.5;paint-order:stroke fill markers"
       d="m 611.34967,-88.505569 h 8.41863 v 3.086212 h -8.41863 z" /><path
       id="path128033"
       style="color:#000000;fill:#f5c03b;fill-opacity:1;stroke-width:0.168768;-inkscape-stroke:none"
       d="m 611.34974,-88.505536 v 0.380469 l 3.29364,1.209074 c -1.09787,0.403033 -2.19573,0.806044 -3.29364,1.209078 v 0.287571 h 1.02831 c 1.05706,-0.388043 2.11413,-0.776082 3.17119,-1.164129 l 3.17113,1.164129 h 1.04802 v -0.280311 l -3.31338,-1.216338 c 1.10446,-0.405443 2.20892,-0.810905 3.31338,-1.216334 v -0.373209 h -0.79495 c -1.14139,0.419003 -2.28282,0.838015 -3.4242,1.257027 l -3.42425,-1.257027 z"
       inkscape:export-filename="O:\OneDrive\Logos\Voca-UK\logo.png"
       inkscape:export-xdpi="550.53149"
       inkscape:export-ydpi="550.53149" /><path
       id="path128060"
       style="fill:#cb2f5e;stroke-width:0.183983;stroke-linecap:round;stroke-linejoin:round;stroke-dashoffset:10.5;paint-order:stroke fill markers"
       transform="matrix(0,-1,0.94246411,0.33430734,0,0)"
       d="m 305.16824,648.67163 h 0.18431 v 4.49878 h -0.18431 z" /><path
       id="path128063"
       style="fill:#cb2f5e;stroke-width:0.183983;stroke-linecap:round;stroke-linejoin:round;stroke-dashoffset:10.5;paint-order:stroke fill markers"
       transform="matrix(0,-1,0.94246411,0.33430734,0,0)"
       d="m 305.26126,653.10553 h 0.18431 v 4.49878 h -0.18431 z" /><path
       id="path128066"
       style="fill:#cb2f5e;stroke-width:0.300227;stroke-linecap:round;stroke-linejoin:round;stroke-dashoffset:10.5;paint-order:stroke fill markers"
       transform="matrix(-1,0,0.93527069,-0.35393323,0,0)"
       d="m -385.89185,245.69069 h 0.55867 v 4.37218 h -0.55867 z" /><path
       id="path128069"
       style="fill:#cb2f5e;stroke-width:0.300227;stroke-linecap:round;stroke-linejoin:round;stroke-dashoffset:10.5;paint-order:stroke fill markers"
       transform="matrix(-1,0,0.93527069,-0.35393323,0,0)"
       d="m -386.18729,241.34315 h 0.55867 v 4.37218 h -0.55867 z" /><path
       id="path128036"
       style="fill:#f5c03b;fill-opacity:1;stroke-width:0.178612;stroke-linecap:round;stroke-linejoin:round;stroke-dashoffset:10.5;paint-order:stroke fill markers"
       d="m 614.98505,-88.496859 v 1.155489 h -3.63526 v 0.766574 h 3.63526 v 1.155452 h 1.14822 v -1.155452 h 3.63517 v -0.766574 h -3.63517 v -1.155489 z"
       sodipodi:nodetypes="ccccccccccccc"
       inkscape:export-filename="O:\OneDrive\Logos\Voca-UK\logo.png"
       inkscape:export-xdpi="550.53149"
       inkscape:export-ydpi="550.53149" /><path
       id="path128039"
       style="fill:#cb2f5e;fill-opacity:1;stroke-width:0.178612;stroke-linecap:round;stroke-linejoin:round;stroke-dashoffset:10.5;paint-order:stroke fill markers"
       d="m 615.21014,-88.496859 v 1.293803 h -3.86035 v 0.489946 h 3.86035 v 1.293766 h 0.69799 v -1.293766 h 3.86031 v -0.489946 h -3.86031 v -1.293803 z"
       inkscape:export-filename="O:\OneDrive\Logos\Voca-UK\logo.png"
       inkscape:export-xdpi="550.53149"
       inkscape:export-ydpi="550.53149" /><g
       aria-label="UK"
       id="text11366-4-8"
       style="font-size:6.29497px;line-height:1.25;font-family:'LEMON MILK Pro FTR';-inkscape-font-specification:'LEMON MILK Pro FTR';letter-spacing:0.157374px;fill:#ffffff;stroke-width:0.294034"><path
         d="m 613.31031,-79.943369 c 1.05428,0 1.91185,-0.817608 1.91185,-1.939515 v -3.122895 h -1.00203 v 3.119822 c 0,0.5379 -0.4334,0.934409 -0.91289,0.934409 -0.4795,0 -0.90675,-0.393435 -0.90675,-0.934409 v -3.119822 h -1.00203 v 3.122895 c 0,1.121907 0.85756,1.939515 1.91185,1.939515 z"
         style="font-weight:500;-inkscape-font-specification:'LEMON MILK Pro FTR Medium'"
         id="path128075" /><path
         d="m 619.90712,-80.050949 -1.76432,-2.529668 1.58912,-2.425162 h -1.14957 l -1.3924,2.14238 v -2.14238 h -0.99281 v 4.95483 h 0.99281 v -2.170043 l 1.50612,2.170043 z"
         style="font-weight:500;-inkscape-font-specification:'LEMON MILK Pro FTR Medium'"
         id="path128072" /></g></g><style
     type="text/css"
     id="style9913">
	.st0{fill:#4285F4;}
	.st1{fill:#34A853;}
	.st2{fill:#FBBC04;}
	.st3{fill:#EA4335;}
</style><style
     type="text/css"
     id="style287">
	.st0{clip-path:url(#SVGID_2_);fill:#147350;}
	.st1{clip-path:url(#SVGID_2_);fill:#FF6C00;}
	.st2{clip-path:url(#SVGID_2_);fill:#EB0F2A;}
</style><style
     type="text/css"
     id="style15629">
	.st0{fill:url(#SVGID_1_);}
	.st1{fill:url(#SVGID_2_);}
	.st2{fill:url(#SVGID_3_);}
	.st3{fill:url(#SVGID_4_);}
</style><style
     type="text/css"
     id="style16410">
	.st0{fill:url(#SVGID_1_);}
	.st1{fill:url(#SVGID_2_);}
	.st2{fill:url(#SVGID_3_);}
	.st3{fill:url(#SVGID_4_);}

.measure-arrow
{
}
.measure-label
{

}
.measure-line
{
}</style></svg>
