<?xml version="1.0" encoding="UTF-8" standalone="no"?>
<svg
   width="284"
   height="216.47047"
   viewBox="0 0 284 216.47048"
   fill="none"
   version="1.1"
   id="svg4"
   xmlns="http://www.w3.org/2000/svg"
   xmlns:svg="http://www.w3.org/2000/svg"
   xmlns:rdf="http://www.w3.org/1999/02/22-rdf-syntax-ns#"
   xmlns:cc="http://creativecommons.org/ns#"
   xmlns:dc="http://purl.org/dc/elements/1.1/">
  <metadata
     id="metadata10">
    <rdf:RDF>
      <cc:Work
         rdf:about="">
        <dc:format>image/svg+xml</dc:format>
        <dc:type
           rdf:resource="http://purl.org/dc/dcmitype/StillImage" />
      </cc:Work>
    </rdf:RDF>
  </metadata>
  <defs
     id="defs8" />
  <path
     d="M 240.418,17.944222 C 222.3168,9.6386216 202.906,3.5194216 182.6108,0.01470161 c -0.3696,-0.06764 -0.7388,0.1014 -0.9292,0.43948 -2.4964,4.44003999 -5.2616,10.23244039 -7.198,14.78524039 -21.8288,-3.268 -43.5456,-3.268 -64.9268,0 -1.9368,-4.654 -4.8024,-10.3452004 -7.31,-14.78524039 -0.1904,-0.3268 -0.5596,-0.49584 -0.9292,-0.43948 C 81.0336,3.5082216 61.6228,9.6274216 43.5104,17.944222 c -0.1568,0.0676 -0.2912,0.1804 -0.3804,0.3268 C 6.3118028,73.276621 -3.7742472,126.93022 1.1736328,179.91862 c 0.0224,0.2592 0.16791,0.5072 0.36941,0.6648 24.2915972,17.8392 47.8221572,28.6692 70.9157572,35.8476 0.3696,0.1128 0.7612,-0.0224 0.9964,-0.3268 5.4628,-7.46 10.3324,-15.326 14.5076,-23.598 0.2464,-0.4844 0.0112,-1.0592 -0.4924,-1.2508 -7.724,-2.93 -15.0788,-6.5024 -22.1536,-10.5592 -0.5596,-0.3268 -0.6044,-1.1272 -0.0896,-1.5104 1.4888,-1.1156 2.978,-2.2764 4.3996,-3.4484 0.2572,-0.214 0.6156,-0.2592 0.918,-0.124 46.4784,21.2204 96.7968,21.2204 142.7268,0 0.3024,-0.1464 0.6608,-0.1012 0.9292,0.1128 1.422,1.172 2.9108,2.344 4.4108,3.4596 0.5148,0.3832 0.4812,1.1836 -0.0784,1.5104 -7.0748,4.1356 -14.4296,7.6292 -22.1648,10.548 -0.5036,0.1916 -0.7276,0.7776 -0.4812,1.262 4.2648,8.2604 9.1344,16.1264 14.4964,23.5868 0.224,0.3156 0.6268,0.4508 0.9964,0.338 23.2056,-7.1784 46.736,-18.0084 71.0276,-35.8476 0.2128,-0.1576 0.3472,-0.3944 0.3696,-0.6536 5.9216,-61.2604 -9.9184,-114.473999 -41.99,-161.647598 -0.0784,-0.1576 -0.2124,-0.2704 -0.3692,-0.338 z M 94.9036,147.65422 c -13.9932,0 -25.5232,-12.8468 -25.5232,-28.624 0,-15.7772 11.3064,-28.623999 25.5232,-28.623999 14.3284,0 25.7468,12.959599 25.5228,28.623999 0,15.7772 -11.3064,28.624 -25.5228,28.624 z m 94.3676,0 c -13.9928,0 -25.5228,-12.8468 -25.5228,-28.624 0,-15.7772 11.306,-28.623999 25.5228,-28.623999 14.3288,0 25.7468,12.959599 25.5232,28.623999 0,15.7772 -11.1944,28.624 -25.5232,28.624 z"
     fill="#000000"
     id="path2"
     style="stroke-width:4;stroke:none;fill:#ffffff;fill-opacity:1" />
</svg>
