<?xml version="1.0" encoding="UTF-8" standalone="no"?>
<!-- Created with Inkscape (http://www.inkscape.org/) -->

<svg
   width="1390"
   height="1129"
   viewBox="0 0 367.77083 298.71458"
   version="1.1"
   id="svg859"
   xmlns="http://www.w3.org/2000/svg"
   xmlns:svg="http://www.w3.org/2000/svg"
   xmlns:rdf="http://www.w3.org/1999/02/22-rdf-syntax-ns#"
   xmlns:cc="http://creativecommons.org/ns#"
   xmlns:dc="http://purl.org/dc/elements/1.1/">
  <defs
     id="defs853" />
  <metadata
     id="metadata856">
    <rdf:RDF>
      <cc:Work
         rdf:about="">
        <dc:format>image/svg+xml</dc:format>
        <dc:type
           rdf:resource="http://purl.org/dc/dcmitype/StillImage" />
      </cc:Work>
    </rdf:RDF>
  </metadata>
  <path
     d="m 115.66115,298.71458 c 138.79074,0 214.68466,-114.9134 214.68466,-214.558434 0,-3.263934 -0.0666,-6.513143 -0.21301,-9.747661 C 344.86583,63.764007 357.67174,50.480448 367.77083,35.359094 354.25144,41.364996 339.7023,45.408146 324.43964,47.231241 340.0186,37.895244 351.97861,23.126765 357.62026,5.520719 343.04169,14.158336 326.8964,20.436243 309.7066,23.825119 295.93713,9.166898 276.33474,0 254.62872,0 c -41.66885,0 -75.45996,33.771258 -75.45996,75.400895 0,5.917679 0.66197,11.673658 1.95655,17.194364 C 118.41242,89.441616 62.804908,59.434165 25.5935,13.805485 19.11331,24.949849 15.37673,37.895244 15.37673,51.70808 c 0,26.162806 13.32078,49.26017 33.57779,62.77162 -12.37927,-0.38226 -24.00831,-3.77852 -34.17361,-9.43156 -0.0111,0.3164 -0.0111,0.62486 -0.0111,0.963 0,36.52058 26.00902,67.01322 60.535688,73.9233 -6.34043,1.72754 -13.01187,2.65378 -19.8966,2.65378 -4.854628,0 -9.584208,-0.47752 -14.181368,-1.35994 9.60625,29.96334 37.461488,51.76688 70.48764,52.37704 -25.825142,20.23039 -58.35846,32.27897 -93.71628,32.27897 -6.08301,0 -12.09243,-0.34579 -17.99889,-1.04389 33.39394,21.39192 73.047378,33.87418 115.66506,33.87418"
     style="fill:#ffffff;fill-opacity:1;fill-rule:nonzero;stroke:none;stroke-width:1.23377"
     id="path3611-8" />
</svg>
