<?xml version="1.0" encoding="UTF-8" standalone="no"?>
<!-- Generator: Adobe Illustrator 22.0.1, SVG Export Plug-In . SVG Version: 6.00 Build 0)  -->

<svg
   version="1.1"
   id="Layer_1"
   x="0px"
   y="0px"
   width="1000px"
   height="700.0002441px"
   viewBox="0 0 1000 700.0002441"
   enable-background="new 0 0 1000 700.0002441"
   xml:space="preserve"
   xmlns="http://www.w3.org/2000/svg"
   xmlns:svg="http://www.w3.org/2000/svg"><defs
   id="defs9106">
	
	
</defs>
<path
   id="path9097"
   d="M 500 0 C 500 0 187.29158 0.00046727104 109.30664 20.896484 C 66.281743 32.397064 32.397114 66.281843 20.896484 109.30664 C 0.00051727099 187.29148 -2.3684734e-15 350 0 350 C 0 350 0.00051527099 512.70852 20.896484 590.69336 C 32.397112 633.71816 66.281745 667.60292 109.30664 679.10352 C 187.29158 699.99954 500 700 500 700 C 500 700 812.7084 699.99954 890.69336 679.10352 C 933.71822 667.60292 967.60286 633.71816 979.10352 590.69336 C 999.99944 512.70852 1000 350 1000 350 C 1000 350 999.99943 187.29147 979.10352 109.30664 C 967.60286 66.281833 933.71822 32.39706 890.69336 20.896484 C 812.70839 0.00046327104 500 0 500 0 z M 400 200 L 659.79688 350.00391 L 400 500 L 400 200 z "
   style="fill:#ffffff;fill-opacity:1;stroke:none" />
</svg>
